<svg width="16" height="16" viewBox="0 0 16 16" fill="none" xmlns="http://www.w3.org/2000/svg">
<path d="M15.3346 7.59268C15.3374 8.66812 15.0861 9.72902 14.6013 10.689C14.0264 11.8393 13.1425 12.8068 12.0488 13.4832C10.9551 14.1596 9.69466 14.5181 8.40869 14.5186C7.33324 14.5214 6.27234 14.2701 5.3124 13.7853L0.667969 15.3334L2.21611 10.689C1.73124 9.72902 1.47998 8.66812 1.48278 7.59268C1.48328 6.30671 1.8418 5.04627 2.51818 3.95254C3.19456 2.85882 4.16209 1.97501 5.3124 1.4001C6.27234 0.915233 7.33324 0.663967 8.40869 0.666771H8.81609C10.5144 0.760468 12.1186 1.47732 13.3213 2.68006C14.524 3.8828 15.2409 5.48692 15.3346 7.18527V7.59268Z" stroke="white" stroke-width="0.7" stroke-linecap="round" stroke-linejoin="round"/>
<path d="M11.3347 9.38146V10.3582C11.335 10.4489 11.3165 10.5386 11.2801 10.6217C11.2438 10.7048 11.1905 10.7794 11.1237 10.8407C11.0569 10.902 10.978 10.9487 10.8921 10.9777C10.8062 11.0068 10.7152 11.0176 10.6249 11.0094C9.62301 10.9005 8.66063 10.5582 7.81508 10.0098C7.02841 9.50996 6.36145 8.84299 5.86157 8.05632C5.31132 7.20693 4.96889 6.23988 4.86202 5.23349C4.85388 5.14346 4.86458 5.05271 4.89344 4.96704C4.92229 4.88137 4.96867 4.80264 5.02962 4.73587C5.09057 4.6691 5.16475 4.61576 5.24744 4.57923C5.33014 4.54271 5.41953 4.5238 5.50993 4.52371H6.48669C6.6447 4.52216 6.79788 4.57811 6.91769 4.68114C7.0375 4.78418 7.11575 4.92726 7.13786 5.08372C7.17909 5.39631 7.25555 5.70322 7.36577 5.99862C7.40958 6.11515 7.41906 6.2418 7.39309 6.36356C7.36713 6.48532 7.3068 6.59708 7.21926 6.68561L6.80577 7.0991C7.26926 7.91422 7.94416 8.58913 8.75928 9.05262L9.17278 8.63912C9.2613 8.55158 9.37306 8.49126 9.49482 8.46529C9.61658 8.43932 9.74323 8.4488 9.85976 8.49261C10.1552 8.60284 10.4621 8.67929 10.7747 8.72052C10.9328 8.74283 11.0773 8.82249 11.1805 8.94436C11.2838 9.06622 11.3386 9.22178 11.3347 9.38146Z" stroke="white" stroke-width="0.7" stroke-linecap="round" stroke-linejoin="round"/>
</svg>
