<svg
  width="30"
  height="30"
  viewBox="0 0 30 30"
  fill="#FF9A81"
  xmlns="http://www.w3.org/2000/svg"
>
<circle cx="15" cy="15" r="14.5" stroke="#FF9A81" />
<path
    d="M23.3536 14.6464C23.5488 14.8417 23.5488 15.1583 23.3536 15.3536L20.1716 18.5355C19.9763 18.7308 19.6597 18.7308 19.4645 18.5355C19.2692 18.3403 19.2692 18.0237 19.4645 17.8284L22.2929 15L19.4645 12.1716C19.2692 11.9763 19.2692 11.6597 19.4645 11.4645C19.6597 11.2692 19.9763 11.2692 20.1716 11.4645L23.3536 14.6464ZM8 15.5C7.72386 15.5 7.5 15.2761 7.5 15C7.5 14.7239 7.72386 14.5 8 14.5V15.5ZM23 15.5L8 15.5V14.5L23 14.5V15.5Z"
    fill="#fff"
  />
</svg>
