<svg
  width="30"
  height="30"
  viewBox="0 0 30 30"
  fill="#FF9A81"
  xmlns="http://www.w3.org/2000/svg"
>
<circle cx="15" cy="15" r="14.5" stroke="#FF9A81" />
<path
    d="M23 14.5C23.2761 14.5 23.5 14.7239 23.5 15C23.5 15.2761 23.2761 15.5 23 15.5V14.5ZM7.64645 15.3536C7.45118 15.1583 7.45118 14.8417 7.64645 14.6464L10.8284 11.4645C11.0237 11.2692 11.3403 11.2692 11.5355 11.4645C11.7308 11.6597 11.7308 11.9763 11.5355 12.1716L8.70711 15L11.5355 17.8284C11.7308 18.0237 11.7308 18.3403 11.5355 18.5355C11.3403 18.7308 11.0237 18.7308 10.8284 18.5355L7.64645 15.3536ZM23 15.5L8 15.5V14.5L23 14.5V15.5Z"
    fill="#fff"
  />
</svg>
