<svg width="14" height="14" viewBox="0 0 14 14" fill="none" xmlns="http://www.w3.org/2000/svg">
<path d="M13.4153 6.64368C13.4178 7.5847 13.1979 8.51298 12.7737 9.35293C12.2706 10.3595 11.4973 11.206 10.5403 11.7979C9.58327 12.3897 8.48038 12.7034 7.35516 12.7039C6.41415 12.7063 5.48586 12.4864 4.64591 12.0622L0.582031 13.4168L1.93666 9.35293C1.5124 8.51298 1.29254 7.5847 1.29499 6.64368C1.29543 5.51846 1.60913 4.41557 2.20097 3.45857C2.7928 2.50156 3.63939 1.72822 4.64591 1.22518C5.48586 0.80092 6.41415 0.581063 7.35516 0.583516H7.71164C9.1977 0.665501 10.6013 1.29274 11.6537 2.34514C12.7061 3.39754 13.3333 4.80114 13.4153 6.2872V6.64368Z" stroke="white" stroke-width="0.7" stroke-linecap="round" stroke-linejoin="round"/>
<path d="M9.91588 8.20856V9.06323C9.9162 9.14257 9.89995 9.2211 9.86817 9.2938C9.83638 9.3665 9.78976 9.43175 9.7313 9.48539C9.67283 9.53903 9.60381 9.57987 9.52865 9.60528C9.45349 9.6307 9.37385 9.64014 9.29483 9.633C8.41818 9.53775 7.5761 9.23819 6.83624 8.7584C6.14791 8.321 5.56432 7.73741 5.12692 7.04907C4.64545 6.30585 4.34582 5.45968 4.25231 4.57909C4.24519 4.50031 4.25456 4.42091 4.2798 4.34595C4.30505 4.27098 4.34563 4.2021 4.39896 4.14367C4.45229 4.08525 4.5172 4.03858 4.58956 4.00662C4.66192 3.97465 4.74014 3.95811 4.81924 3.95804H5.6739C5.81216 3.95667 5.9462 4.00563 6.05103 4.09579C6.15586 4.18594 6.22433 4.31114 6.24368 4.44804C6.27975 4.72155 6.34665 4.99011 6.4431 5.24858C6.48143 5.35055 6.48972 5.46136 6.467 5.5679C6.44428 5.67444 6.3915 5.77223 6.3149 5.84969L5.95309 6.2115C6.35865 6.92473 6.94919 7.51527 7.66242 7.92083L8.02423 7.55902C8.10168 7.48242 8.19948 7.42964 8.30601 7.40691C8.41255 7.38419 8.52337 7.39249 8.62534 7.43082C8.88381 7.52727 9.15236 7.59417 9.42587 7.63024C9.56426 7.64976 9.69065 7.71947 9.781 7.8261C9.87134 7.93273 9.91935 8.06885 9.91588 8.20856Z" stroke="white" stroke-width="0.7" stroke-linecap="round" stroke-linejoin="round"/>
</svg>
